<svg xmlns="http://www.w3.org/2000/svg" viewBox="0 0 64 64">
    <defs>
        <style>
            .cls-1{fill:#facf6c;}.cls-2{fill:#a8a0a2;}.cls-3{fill:#736b6d;}.cls-4{fill:#e2dddf;}.cls-5{fill:#524a4d;}.cls-6{fill:#fff;}.cls-7{fill:none;stroke:#736b6d;stroke-miterlimit:10;stroke-width:2px;}
        </style>
    </defs>
    <polygon class="cls-1" points="49 64 3 64 3 0 41 0 49 8 49 64"/>
    <polygon class="cls-2" points="49 8 41 8 41 0 49 8"/>
    <rect class="cls-3" x="9" y="20" width="4" height="4"/>
    <rect class="cls-2" x="15" y="20" width="4" height="4"/>
    <rect class="cls-3" x="21" y="20" width="4" height="4"/>
    <rect class="cls-2" x="33" y="20" width="4" height="4"/>
    <rect class="cls-2" x="51" y="20" width="4" height="4"/>
    <rect class="cls-4" x="57" y="44" width="4" height="4"/>
    <rect class="cls-3" x="9" y="26" width="4" height="4"/>
    <rect class="cls-5" x="15" y="26" width="4" height="4"/>
    <rect class="cls-3" x="21" y="26" width="4" height="4"/>
    <rect class="cls-3" x="27" y="26" width="4" height="4"/>
    <rect class="cls-2" x="33" y="26" width="4" height="4"/>
    <rect class="cls-2" x="45" y="26" width="4" height="4"/>
    <rect class="cls-2" x="39" y="32" width="4" height="4"/>
    <rect class="cls-3" x="57" y="26" width="4" height="4"/>
    <rect class="cls-4" x="51" y="26" width="4" height="4"/>
    <rect class="cls-3" x="51" y="38" width="4" height="4"/>
    <rect class="cls-2" x="57" y="32" width="4" height="4"/>
    <rect class="cls-3" x="9" y="32" width="4" height="4"/>
    <rect class="cls-3" x="15" y="32" width="4" height="4"/>
    <rect class="cls-6" x="21" y="32" width="4" height="4"/>
    <rect class="cls-2" x="27" y="32" width="4" height="4"/>
    <rect class="cls-6" x="39" y="38" width="4" height="4"/>
    <rect class="cls-6" x="33" y="32" width="4" height="4"/>
    <rect class="cls-6" x="45" y="32" width="4" height="4"/>
    <rect class="cls-2" x="21" y="38" width="4" height="4"/>
    <rect class="cls-6" x="27" y="50" width="4" height="4"/>
    <rect class="cls-6" x="45" y="50" width="4" height="4"/>
    <rect class="cls-6" x="45" y="44" width="4" height="4"/>
    <rect class="cls-6" x="39" y="26" width="4" height="4"/>
    <rect class="cls-6" x="39" y="20" width="4" height="4"/>
    <rect class="cls-6" x="27" y="20" width="4" height="4"/>
    <rect class="cls-6" x="45" y="20" width="4" height="4"/>
    <rect class="cls-3" x="9" y="38" width="4" height="4"/>
    <rect class="cls-3" x="15" y="38" width="4" height="4"/>
    <rect class="cls-3" x="27" y="38" width="4" height="4"/>
    <rect class="cls-2" x="33" y="38" width="4" height="4"/>
    <rect class="cls-2" x="45" y="38" width="4" height="4"/>
    <rect class="cls-2" x="51" y="44" width="4" height="4"/>
    <rect class="cls-3" x="9" y="44" width="4" height="4"/>
    <rect class="cls-6" x="15" y="44" width="4" height="4"/>
    <rect class="cls-5" x="21" y="44" width="4" height="4"/>
    <rect class="cls-3" x="27" y="44" width="4" height="4"/>
    <rect class="cls-2" x="33" y="44" width="4" height="4"/>
    <rect class="cls-3" x="39" y="44" width="4" height="4"/>
    <rect class="cls-3" x="9" y="50" width="4" height="4"/>
    <rect class="cls-5" x="15" y="50" width="4" height="4"/>
    <rect class="cls-2" x="21" y="50" width="4" height="4"/>
    <rect class="cls-3" x="33" y="50" width="4" height="4"/>
    <rect class="cls-2" x="39" y="50" width="4" height="4"/>
    <rect class="cls-4" x="51" y="50" width="4" height="4"/>
    <line class="cls-7" x1="27" y1="7" x2="29" y2="7"/>
    <line class="cls-7" x1="31" y1="7" x2="33" y2="7"/>
    <line class="cls-7" x1="35" y1="7" x2="37" y2="7"/>
</svg>